<svg xmlns="http://www.w3.org/2000/svg" id="Layer_1" data-name="Layer 1" viewBox="0 0 2197.17 1757.3"><defs><style>      .cls-1 {        fill: #ffde17;        stroke-width: 0px;      }    </style></defs><path class="cls-1" d="m337.69,916.51c-4.36.05-8.19.13-12.01.13-72.6,0-145.21,0-217.81.02-3.82,0-7.67-.33-11.2.49-2.96,2.12-3.98,5.29-5.78,7.9-5.99,8.67-13.84,14.84-23.67,18.74-27.24,10.79-58.16-5.8-65.67-33.88-5.72-21.38,4.2-52.8,37.01-61.06,3.95-1,8.26-.68,12.4-.8,12.51-.36,23,4.56,32.21,12.62,3.39,2.96,6.14,6.5,8.54,10.31,1.02,1.62,1.99,3.29,3.2,4.76.55.67,1.56,1.09,2.43,1.35.9.27,1.89.27,2.85.29,2.24.05,4.48.04,6.72.04,67.49,0,134.97.03,202.46-.02,13.29,0,10.02,1.26,19.18-7.79,12.51-12.36,24.91-24.85,37.33-37.3,2.03-2.03,3.94-4.18,5.95-6.32.15-1.97.42-3.87.42-5.77.03-22.39.03-44.78.02-67.17,0-1.6-.09-3.2-.21-4.79-.11-1.59-1.42-3.06-2.95-3.33-1.25-.22-2.52-.46-3.78-.51-2.56-.09-5.12-.08-7.67-.08-56.93,0-113.86,0-170.79.01-3.51,0-7.03.13-10.54.33-1.66.1-3.02,1.03-3.94,2.42-1.06,1.6-1.95,3.31-3.01,4.91-8.25,12.44-19.94,19.95-34.53,21.99-24.52,3.43-46.77-10.88-54.02-33.46-9.03-28.12,6.43-57.1,36.37-64.51,18.91-2.9,37.21,1.41,50.81,19.55,1.34,1.79,2.62,3.65,3.62,5.64,1.36,2.69,3.57,3.44,6.3,3.44,2.24,0,4.48.03,6.72.03,58.21,0,116.42.02,174.63,0,14.1,0,12.96,1.06,12.99-12.9.04-19.19.01-38.38.01-57.57,0-1.6-.14-3.21.02-4.8.41-4.13-.89-7.49-4.02-10.24-1.92-1.69-3.63-3.61-5.44-5.41-12.03-11.94-24.05-23.89-36.1-35.82-6.3-6.25-5.91-6.27-15.11-6.31-2.56,0-5.12,0-7.68,0-63.97,0-127.94,0-191.9,0-1.92,0-3.84,0-5.76,0-11.18.07-9.96-.24-15.42,8.09-7.95,12.14-19.39,19.6-33.67,21.62-25.45,3.62-46.39-11.19-54.13-31.97-9.53-25.57,3.98-53.94,28.11-63.33,21.28-8.28,45.45-1.6,58.85,17.26,1.29,1.82,2.48,3.73,3.58,5.67,1.42,2.51,3.61,3.49,6.36,3.53,3.52.05,7.04.11,10.55.11,70.68,0,141.37-.05,212.05.04,18.22.02,12.83-1.9,25.66,10.76,16.16,15.95,32.12,32.11,48.22,48.13,5.02,4.99,5.42,6.84,14.19,3.65,29.14-7.12,58.27-14.24,87.41-21.36,18.6-4.54,37.2-9.05,55.79-13.61,2.16-.53,4.32-1.19,6.39-2.01,6.26-2.47,10.72-6.85,13.25-13.1.84-2.07,1.49-4.22,2.15-6.35,4.85-15.6,10.88-30.7,18.51-45.17,1.19-2.25,2.11-4.65,3.04-7.03,2.45-6.23,2.19-12.46.04-18.73-1.37-3.98-3.54-7.5-5.71-11.04-8.17-13.36-16.42-26.68-24.47-40.12-14.3-23.85-28.52-47.75-42.68-71.69-3.58-6.05-6.75-12.32-8.67-19.16-2.99-10.65-2.28-20.88,3.39-30.52,1.78-3.02,3.79-5.94,6.01-8.65,2.83-3.46,5.85-6.78,9.01-9.95,34.57-34.63,69.19-69.22,103.78-103.83,4.53-4.53,9.27-8.8,14.48-12.55,5.82-4.19,12.29-6.73,19.29-8.05,2.87-.54,5.72-.57,8.58-.04,6.62,1.23,13.08,2.98,19.06,6.18,3.94,2.11,7.9,4.21,11.73,6.51,33.71,20.23,67.39,40.52,101.08,60.78,3.56,2.14,7.07,4.39,10.74,6.32,6.94,3.64,14.05,3.88,21.2.5,2.02-.96,4.04-1.92,6.03-2.94,20.2-10.39,40.87-19.69,62.63-26.32,11.29-3.44,17.4-10.86,19.99-22.18,4.91-21.48,10.28-42.86,15.48-64.27,5.8-23.9,11.59-47.8,17.45-71.68,1.52-6.21,3.24-12.37,5.91-18.21,4.64-10.15,11.42-18.43,21.13-24.16,2.8-1.65,5.71-2.78,9.05-2.58,2.23.14,4.48.02,6.72.02,58.53,0,117.06,0,175.59,0,.96,0,1.94.12,2.88-.02,6.88-.97,12.43,1.89,17.62,5.96,6.41,5.02,11.38,11.2,15.01,18.45,2.73,5.45,4.7,11.17,6.14,17.1,4.29,17.69,8.64,35.37,12.97,53.05,6.14,25.13,12.28,50.26,18.42,75.39.99,4.03,1.92,8.08,2.98,12.09.57,2.16,1.22,4.31,2.07,6.37,2.42,5.88,6.57,10.15,12.43,12.66,2.05.88,4.18,1.57,6.3,2.27,18.84,6.22,37.1,13.82,54.75,22.89,3.7,1.9,7.42,3.74,11.44,4.88,3.78,1.07,7.53,1.02,11.33-.14,4.34-1.32,8.2-3.52,12.02-5.85,12.27-7.5,24.52-15.04,36.86-22.44,21.37-12.83,42.77-25.62,64.23-38.31,4.94-2.92,10.11-5.47,15.28-7.97,3.44-1.67,7.22-2.46,10.9-3.53,8.58-2.49,16.46-.58,24.2,2.83,4.41,1.94,8.42,4.63,12.06,7.77,4.11,3.55,8.18,7.17,12.02,11,33.06,32.98,66.07,66.01,99.07,99.05,2.94,2.94,5.87,5.91,8.53,9.09,2.86,3.43,5.6,6.99,8.05,10.72,6.97,10.64,7.67,22.08,3.88,33.99-1.85,5.82-4.5,11.27-7.55,16.54-3.68,6.36-7.39,12.71-11.18,19.01-17.15,28.48-34.33,56.95-51.51,85.41-2.15,3.56-4.27,7.1-5.65,11.07-1.97,5.69-2.06,11.28.26,16.84,1.11,2.65,2.35,5.25,3.68,7.79,8.91,17.03,16.42,34.64,22.29,52.94.88,2.73,1.86,5.44,2.93,8.1,2.52,6.27,7.05,10.58,13.27,13.08,2.06.83,4.22,1.49,6.38,2.02,23.87,5.81,47.77,11.51,71.63,17.36,23.55,5.78,47.08,11.68,70.59,17.59,3.4.85,6.69,2.13,10.06,3.11,1.62.48,3.22.14,4.48-.99,2.14-1.92,4.22-3.91,6.25-5.95,15.58-15.63,31.03-31.39,46.74-46.89,14.32-14.14,7.91-11.82,29.06-11.86,69.09-.11,138.17-.04,207.26-.04,2.88,0,5.76.01,8.64-.02,1.6-.02,3.2-.08,4.79-.17,2.35-.14,4.31-.94,5.56-3.14,1.1-1.94,2.29-3.85,3.58-5.68,7.75-10.96,18.3-18.1,31.41-20.3,28.65-4.8,51.98,12.68,57.4,37.45,5.34,24.43-5.55,44.83-24.88,55.25-21.82,11.76-48.81,5.39-63.38-14.47-.94-1.29-1.98-2.57-2.6-4.01-1.9-4.4-5.18-6.18-9.87-5.9-2.55.15-5.12,0-7.67,0-65.89,0-131.77,0-197.66,0-3.2,0-6.4.05-9.59.14-2.32.07-4.35.91-6.02,2.57-1.36,1.35-2.76,2.67-4.12,4.02-14.25,14.24-28.5,28.49-42.75,42.74-1.36,1.36-2.7,2.73-4.03,4.11-1.61,1.68-2.54,3.65-2.54,6.01,0,1.92-.06,3.84-.06,5.76,0,18.55,0,37.1,0,55.65,0,.64,0,1.28,0,1.92.11,10.05.11,10.11,10.18,10.12,61.41.02,122.82.02,184.23,0,2.85,0,5.77.39,8.85-1.04,1.58-2.4,3.25-5.11,5.09-7.71,7.56-10.67,17.87-17.68,30.59-19.91,27.39-4.81,48.38,10.22,56.24,31.2,9.38,25.03-2.38,52.18-25.84,62.8-22.34,10.12-47.26,2.44-60.74-16.05-1.31-1.8-2.52-3.71-3.59-5.67-1.57-2.88-4-3.96-7.13-3.91-1.6.02-3.2-.05-4.8-.05-60.45,0-120.9,0-181.35.01-2.55,0-5.11.15-7.66.35-1.94.16-3.65,1.88-3.8,3.72-.15,1.91-.27,3.83-.27,5.74-.02,20.15-.02,40.3,0,60.45,0,1.6.08,3.2.16,4.79.08,1.67.81,3.07,1.88,4.3.84.96,1.71,1.9,2.62,2.8,15.41,15.35,30.82,30.69,46.25,46.02,1.13,1.13,2.25,2.31,3.55,3.21,1.01.7,2.27,1.33,3.46,1.43,2.86.25,5.75.21,8.63.21,42.86,0,85.72,0,128.58,0,24.63,0,49.25,0,73.88,0,2.24,0,4.48-.1,6.72,0,3.47.15,6.18-.79,7.81-4.21.95-2,2.34-3.82,3.67-5.61,7.35-9.92,17.14-16.59,29.16-18.79,29.91-5.48,53,11.9,58.7,36.69,6.6,28.73-9.89,50.82-31.32,58.65-22.21,8.11-45.46-1.28-57.08-17.81-.55-.78-1.15-1.54-1.62-2.38-4.53-8.15-4.63-7.3-13.77-7.31-37.42-.04-74.84-.02-112.26-.02-36.14,0-72.28,0-108.43,0h-10.26c-3.63-1.68-5.82-4.51-8.29-6.96-15.86-15.8-31.68-31.65-47.51-47.48-1.81-1.81-3.6-3.64-5.43-5.42-8.76-8.53-5.79-7.37-17.26-4.18-10.75,2.99-21.64,5.47-32.48,8.14-24.77,6.12-49.54,12.24-74.32,18.33-11.77,2.89-23.56,5.7-35.34,8.58-2.48.61-4.96,1.23-7.37,2.05-6.73,2.28-11.54,6.67-14.17,13.34-.59,1.48-1.17,2.97-1.66,4.49-6.22,19.54-14.34,38.28-23.52,56.59-1.58,3.14-3.07,6.3-4.16,9.67-1.24,3.84-1.04,7.48.2,11.27,1.21,3.69,3.13,6.99,5.11,10.27,7.44,12.31,14.97,24.57,22.37,36.9,13.16,21.93,26.26,43.89,39.38,65.84,3.12,5.22,5.94,10.59,8.15,16.26,1.76,4.51,2.71,9.19,2.91,14.01.29,6.83-.89,13.32-4.18,19.43-2.29,4.26-5.03,8.16-8.13,11.83-2.06,2.44-4.26,4.77-6.52,7.03-32.97,33.07-65.95,66.13-98.94,99.18-3.39,3.39-6.83,6.74-10.3,10.05-4.64,4.43-9.6,8.44-15.19,11.64-6.84,3.93-14.14,5.78-22.04,5.05-4.17-.39-8.11-1.7-12.02-3.06-6.07-2.11-11.67-5.17-17.16-8.47-32.33-19.42-64.65-38.86-96.96-58.3-2.19-1.32-4.36-2.68-6.54-4-2.75-1.67-5.77-2.69-8.81-3.69-3.16-1.04-6.26-1.09-9.42-.19-3.71,1.05-7.17,2.65-10.58,4.42-14.75,7.67-29.81,14.63-45.42,20.38-4.49,1.65-9.01,3.25-13.52,4.86-1.5.54-3,1.1-4.53,1.54-9.58,2.78-14.84,9.48-17.18,18.84-1.24,4.96-2.44,9.93-3.65,14.89-10.42,42.49-20.81,84.99-31.3,127.47-1.3,5.26-2.7,10.54-5.09,15.45-1.53,3.15-3.08,6.33-4.97,9.27-4.3,6.7-10.44,11.21-17.93,13.74-3.91,1.32-7.92,2.31-12.14,2.58-7.98.49-15.95.94-23.95.93-43.18-.06-86.36-.09-129.53.02-8.65.02-17.28-.38-25.86-1.24-14.34-1.43-25.35-8.15-31.89-21.38-2.98-6.04-5.17-12.37-6.8-18.9-4.4-17.67-8.86-35.32-13.19-53-7.14-29.16-14.17-58.34-21.3-87.5-.68-2.78-1.51-5.56-2.63-8.19-2.36-5.54-6.45-9.48-11.98-11.83-2.34-1-4.81-1.7-7.23-2.51-18.81-6.28-37.07-13.87-54.73-22.89-2.84-1.45-5.73-2.81-8.65-4.09-6.21-2.71-12.47-2.54-18.59.2-2.9,1.3-5.67,2.93-8.41,4.57-30.69,18.43-61.35,36.9-92.03,55.34-3.83,2.3-7.66,4.64-11.6,6.75-5.36,2.86-10.95,5.09-16.85,6.73-9.49,2.64-18.35,1.21-26.89-3.17-5.72-2.94-10.74-6.93-15.45-11.29-3.52-3.26-6.96-6.6-10.35-9.99-31.45-31.42-62.89-62.85-94.3-94.32-3.84-3.85-7.57-7.81-11.18-11.87-4.05-4.55-7.55-9.53-10.03-15.13-2.23-5.02-3.74-10.27-3.47-15.78.22-4.46,1.27-8.83,2.66-13.11,2.19-6.73,5.43-12.97,9.02-19.02,11.75-19.8,23.52-39.58,35.37-59.32,7.24-12.06,14.67-24,21.93-36.05,1.97-3.28,3.85-6.64,5.41-10.13,2.89-6.46,2.79-13.05.02-19.55-1.12-2.64-2.45-5.2-3.77-7.75-9.25-17.93-17.05-36.45-23.17-55.68-.29-.91-.6-1.82-.89-2.73-2.88-9.34-9.13-15.18-18.52-17.67-5.86-1.55-11.74-2.99-17.63-4.42-22.31-5.43-44.64-10.81-66.94-16.26-21.68-5.31-43.36-10.66-65.01-16.09-2.51-.63-4.38,0-6.1,1.63-1.86,1.76-3.67,3.57-5.47,5.38-16.7,16.77-33.39,33.55-50.09,50.32-2.25,2.26-4.55,4.48-7.31,7.2Zm347.25-194.86c.57,12.86,1.1,24.67,1.63,36.49.01.32.04.64.09.96,1.69,12.02,2.83,24.1,5.01,36.06,3.62,19.83,8.5,39.32,14.99,58.39,25.28,74.2,68.39,136.09,128.75,185.97,32.52,26.87,68.5,48.05,107.7,63.61,38.22,15.16,77.78,24.8,118.91,27.49,1.59.1,3.18.36,4.77.49,4.14.34,8.28.87,12.42.92,10.55.13,21.1.05,31.65.02,2.24,0,4.51.04,6.7-.33,9.78-1.64,19.72-1.49,29.56-2.93,9.79-1.44,19.61-2.77,29.28-4.77,26.31-5.44,51.93-13.24,76.71-23.72,51.31-21.7,96.4-52.48,135.22-92.45,38.83-39.96,68.29-85.94,88.42-137.88,9.14-23.58,16.02-47.81,20.47-72.74,2.75-15.43,5.06-30.89,5.74-46.57.07-1.6.28-3.19.37-4.78.33-6.06.82-12.12.91-18.19.24-17.92-1.1-35.75-3.15-53.56-1.72-14.94-4.38-29.68-7.75-44.33-10.42-45.28-28.25-87.45-53.22-126.59-33.21-52.04-76.02-94.49-128.26-127.35-37.32-23.48-77.44-40.41-120.35-50.79-11.18-2.71-22.44-4.97-33.76-6.77-7.22-1.15-14.46-2.71-21.86-2.62-1.27.02-2.57-.07-3.82-.32-7.26-1.47-14.62-1.48-21.98-1.49-12.15-.02-24.3.01-36.45.08-3.19.02-6.46-.12-9.57.45-8.5,1.58-17.15,1.61-25.7,2.93-10.73,1.66-21.38,3.54-31.99,5.8-34.56,7.35-67.44,19.39-98.81,35.53-38.68,19.9-73.33,45.33-103.89,76.33-51.88,52.63-87.11,114.72-105.73,186.2-4.92,18.87-8.12,38.06-10.36,57.47-1.69,14.66-1.43,29.36-2.69,42.98Zm1384.78,26.98c12.8.7,24.35-11.3,23.98-24.39-.36-12.73-11.18-23.52-24.08-23.69-13.05-.18-24.72,11.24-24.51,24.26.21,13.15,11.3,24.67,24.61,23.83Zm77.6,172.67c11.96.72,24.52-9.11,24.57-23.88.05-12.88-9.5-23.95-24.4-24.22-13.02-.24-23.63,10.77-24.04,23.58-.44,13.81,11.81,25.11,23.87,24.53ZM49.64,576.09c12.18.57,23.87-9.44,24.17-23.4.29-13.74-10.91-24.45-24.15-24.48-13.66-.03-24.37,11.57-24.16,24.46.2,12.29,10.81,23.93,24.14,23.42Zm-.34,345.22c11.02.74,24.46-8.35,24.49-23.87.03-13.41-10.01-24.22-24.28-24.19-14.97.04-23.77,12.28-23.99,23.5-.29,14.78,12.41,25.06,23.78,24.56Zm2098.5-392.99c-15.18-.47-24.44,12.95-24.42,23.96.02,11.49,10.08,24.08,24.59,23.93,12.07-.13,23.62-9.77,23.97-23.6.32-12.73-10.33-24.66-24.14-24.28ZM128.05,748.63c11.79.8,24.19-10.29,23.92-24.36-.2-10.31-8.15-23.48-23.95-23.56-14.79-.07-24.43,10.96-24.43,24.07,0,15.59,13.28,24.79,24.45,23.86Z"></path><path class="cls-1" d="m211.76,1754.61c-2.52-3.5-3.26-6.99-4.39-10.3-5.98-17.52-11.85-35.07-17.82-52.59-.71-2.09-1.79-4.05-2.75-6.04-.1-.21-.53-.41-.79-.39-.58.06-1.49.11-1.65.45-1.1,2.28-2.17,4.59-3.01,6.97-6.25,17.76-12.44,35.54-18.67,53.32-.95,2.7-1.98,5.37-2.96,7.99-1.14.37-2.03.91-2.92.92-9.91.07-19.81.06-29.72.08-2.23,0-3.54-1.19-4.22-3.19-1.75-5.14-3.52-10.26-5.2-15.42-11.52-35.52-23.03-71.05-34.5-106.58-.98-3.02-1.7-6.13-2.48-9.21-.28-1.09.94-2.74,1.98-2.85,1.27-.14,2.54-.37,3.81-.38,10.55-.03,21.09-.02,31.64,0,.64,0,1.28.06,1.91.09,2.06.12,3.7.82,4.3,3.04.5,1.84,1.13,3.65,1.62,5.5,4.51,17.29,8.98,34.6,13.53,51.88.81,3.06,1.91,6.04,3,9.01.14.38,1.07.53,1.66.65.22.04.64-.25.75-.49,1.05-2.3,2.2-4.57,3.04-6.95,6.31-17.74,12.55-35.51,18.84-53.27.96-2.7,1.86-5.44,3.12-8,.49-.99,1.89-1.56,2.9-2.26.24-.16.62-.17.93-.17,7.99-.02,15.97-.07,23.96-.01,2.53.02,4.05,1.53,4.87,3.88,2.53,7.23,5.1,14.45,7.65,21.68,4.46,12.64,8.88,25.3,13.38,37.93.85,2.39,1.89,4.71,2.98,6.99.18.37,1.11.6,1.64.52.53-.09,1.29-.56,1.42-1.01,1.5-5.21,2.96-10.44,4.3-15.69,3.95-15.46,7.82-30.94,11.8-46.39.54-2.11,1.52-4.11,2.34-6.29,1.81-.24,3.37-.61,4.93-.62,10.87-.05,21.73-.03,32.6,0,.95,0,1.89.24,2.84.37.73.1,1.68,1.43,1.47,2.15-.69,2.46-1.35,4.92-2.14,7.35-10.66,32.78-21.35,65.55-32.03,98.32-2.28,6.98-4.59,13.95-6.9,20.91-.6,1.82-1.31,3.6-1.89,5.42-.67,2.09-2.07,3.11-4.25,3.11-9.27,0-18.54.03-27.8,0-.94,0-1.89-.25-3.12-.43Z"></path><path class="cls-1" d="m1234.16,1708.92c-8.08.65-15.36.86-22.88-.15-2.73-4.35-5.41-8.68-8.16-12.98-3.26-5.11-6.55-10.2-9.91-15.25-.25-.37-1.18-.59-1.64-.43-.5.17-.94.81-1.2,1.35-.27.55-.38,1.22-.41,1.85-.09,1.91-.15,3.83-.15,5.75-.01,16.94,0,33.87-.01,50.81,0,2.56.02,5.11-.09,7.67-.22,5.28-1.49,6.46-7.09,6.73-.64.03-1.28.05-1.92.05-7.03,0-14.06.04-21.09-.03-1.9-.02-3.81-.29-5.68-.64-1.31-.24-2.25-1.16-2.61-2.49-.25-.92-.49-1.87-.52-2.81-.1-2.87-.13-5.75-.13-8.63,0-36.11-.02-72.22.01-108.33,0-3.51.18-7.02.38-10.52.09-1.59,1.56-2.99,3.09-3.17,1.27-.14,2.54-.32,3.81-.33,9.59-.02,19.17.02,28.76-.01,3.1-.01,5.45.94,7.14,3.8,4.4,7.41,9.03,14.69,13.56,22.03,3.69,5.98,7.34,11.98,11.06,17.95.66,1.06,1.57,1.98,2.39,2.95.47.55,2.21.56,2.64-.02,1.14-1.52,2.34-3.01,3.35-4.62,7.11-11.37,14.18-22.77,21.26-34.17,5.34-8.61,4.2-7.85,14.43-7.93,7.99-.06,15.98-.03,23.97.02,1.58,0,3.21.1,4.73.49.79.2,1.58,1.03,2.02,1.78.45.79.62,1.82.66,2.76.12,2.55.13,5.11.13,7.66,0,37.07.02,74.14-.02,111.2,0,3.18-.24,6.37-.49,9.54-.12,1.55-1.63,2.91-3.19,3.11-1.26.17-2.54.37-3.81.37-7.99.03-15.98.05-23.97-.01-1.58-.01-3.16-.33-4.73-.57-1.16-.18-2.45-1.47-2.51-2.56-.16-2.87-.35-5.73-.36-8.6-.03-17.89,0-35.79-.04-53.68,0-2.54-.22-5.08-.49-7.61-.04-.43-.79-1-1.29-1.09-.52-.09-1.39.14-1.67.54-1.66,2.34-3.26,4.73-4.75,7.18-4.13,6.83-8.19,13.69-12.58,21.05Z"></path><path class="cls-1" d="m1935.02,1685.49c0,19.51.03,39.02-.01,58.53-.02,9.8-.48,10.23-10.26,10.3-6.08.05-12.15-.06-18.23-.01-3.74.03-6.87-.99-9.09-4.26-1.25-1.85-2.79-3.5-4.19-5.24-13.41-16.71-26.8-33.44-40.23-50.13-1.38-1.72-2.49-3.72-4.59-4.79-.66-.34-2.31.11-2.39.85-.22,1.89-.54,3.78-.54,5.68-.05,15.35,0,30.7-.04,46.06,0,2.87-.19,5.74-.35,8.61-.06,1.11-1.34,2.36-2.47,2.61-.62.14-1.24.4-1.86.4-9.91.03-19.82.08-29.73,0-2.52-.02-4.13-1.75-4.41-4.2-.11-.95-.19-1.91-.22-2.87-.04-1.28-.03-2.56-.03-3.84,0-38.38,0-76.76,0-115.14,0-1.92.02-3.84.13-5.75.2-3.39,1.46-4.78,4.64-4.84,6.07-.12,12.15-.12,18.23-.12,3.2,0,6.39.08,9.59.16,1.67.04,3.11.7,4.2,1.98,1.86,2.19,3.73,4.38,5.52,6.63,12.55,15.76,25.07,31.54,37.61,47.31,1.59,2,3.21,3.99,4.83,5.96.81.99,1.72,1.82,3.14,1.83,1.09,0,1.69-1.27,1.74-4,.04-2.24.04-4.48.04-6.72,0-13.75-.01-27.51.01-41.26,0-2.87.11-5.75.23-8.62.07-1.57,1.47-2.88,3.15-3.01,1.59-.13,3.19-.25,4.79-.24,8.95.04,17.91.09,26.86.21,2.11.03,3.54,1.48,3.68,3.65.18,2.87.26,5.75.27,8.62.02,18.55.01,37.1.01,55.65Z"></path><path class="cls-1" d="m836.78,1617.94c2.08,2.52,4.14,4.94,6.13,7.43,13.15,16.5,26.27,33.03,39.42,49.52,1.59,1.99,3.29,3.9,5.04,5.76.34.37,1.18.53,1.7.4.49-.13,1.18-.73,1.23-1.17.25-2.53.44-5.08.44-7.62.04-14.71,0-29.41.03-44.12,0-2.55.18-5.1.33-7.65.07-1.19,1.3-2.49,2.38-2.67.94-.15,1.89-.39,2.83-.4,9.27-.03,18.54-.03,27.81,0,.95,0,1.9.22,2.84.35,1.18.17,2.43,1.38,2.51,2.52.13,1.91.3,3.82.3,5.73.02,39.65,0,79.29.02,118.94,0,8.18-.04,9.35-9.1,9.37-7.03.01-14.07-.03-21.1-.11-2.69-.03-4.91-1.07-6.63-3.26-3.74-4.78-7.58-9.49-11.38-14.22-11.01-13.71-22.01-27.43-33.03-41.13-1.4-1.74-2.89-3.41-4.36-5.09-.71-.82-1.97-1-2.54-.39-.41.44-1.01.95-1.05,1.47-.21,2.86-.37,5.73-.38,8.6-.04,14.07,0,28.14-.04,42.2,0,2.87-.26,5.73-.46,8.59-.08,1.1-1.36,2.44-2.44,2.65-1.25.24-2.5.6-3.76.6-8.31.06-16.62.06-24.94.02-1.26,0-2.52-.32-3.78-.54-1.15-.2-2.41-1.45-2.59-2.53-.16-.94-.4-1.89-.43-2.83-.08-2.56-.1-5.11-.1-7.67,0-36.77-.02-73.54,0-110.31.01-13.93-.87-12.98,12.98-13.03,5.75-.02,11.51-.02,17.26.06,1.57.02,3.14.34,4.84.54Z"></path><path class="cls-1" d="m585.3,1685.21c0-18.87-.01-37.73.02-56.6,0-2.87.1-5.75.41-8.6.08-.74,1-1.59,1.74-1.99.8-.44,1.84-.56,2.78-.57,8.95-.04,17.9-.02,26.86-.05,2.42,0,4.29,1.01,5.77,2.86,2.59,3.25,5.19,6.49,7.78,9.74,12.74,16.01,25.47,32.03,38.22,48.04.97,1.22,1.8,2.72,3.51,3.03.53.09,1.29-.18,1.68-.56.41-.4.68-1.12.71-1.71.14-2.87.25-5.75.25-8.62.03-14.71-.01-29.42.05-44.13,0-2.21.37-4.44.73-6.63.08-.51.75-1.04,1.28-1.35.53-.31,1.21-.5,1.83-.51,10.23-.03,20.45-.03,30.68,0,.62,0,1.3.2,1.83.51.52.31,1.2.85,1.27,1.35.31,2.53.61,5.07.62,7.61.04,39.01.03,78.02.02,117.03,0,1.92-.06,3.84-.16,5.75-.15,3.01-1.91,4.13-4.3,4.18-8.63.16-17.25.15-25.88.12-1.97,0-3.74-.82-5.05-2.37-1.86-2.19-3.73-4.38-5.53-6.62-13.02-16.2-26.01-32.42-39.05-48.6-1.79-2.23-3.77-4.31-5.76-6.37-.31-.33-1.23-.37-1.7-.17-.48.21-1.04.86-1.08,1.36-.2,2.54-.31,5.1-.32,7.65-.03,14.39,0,28.78-.02,43.17,0,2.56-.02,5.12-.14,7.67-.11,2.4-1.8,3.97-4.35,4.25-.64.07-1.27.17-1.91.17-8.95,0-17.9.01-26.86-.07-1.24-.01-2.56-.31-3.69-.83-.76-.35-1.7-1.25-1.78-1.99-.32-2.85-.43-5.73-.44-8.6-.03-19.19-.02-38.37-.02-57.56Z"></path><path class="cls-1" d="m1063.5,1658.17c-.86-.09-1.82-.04-2.68-.32-2.73-.87-5.45-1.81-8.14-2.81-9.47-3.52-19.3-4.35-29.23-3.36-7.39.73-14.31,3.25-20.36,7.69-6.73,4.95-10.78,11.51-12.22,19.84-1.11,6.47-.6,12.81,1.05,18.98,3.5,13.07,16.08,22.76,29.66,23.22,5.42.18,10.9.46,15.98-2.06.85-.42,1.75-.85,2.42-1.49.66-.63,1.43-1.51,1.5-2.34.21-2.52.15-5.07.1-7.61-.02-1.19-1.29-2.49-2.43-2.57-2.86-.18-5.72-.27-8.59-.43-1.9-.11-3.84-.13-5.69-.54-.74-.16-1.47-1.14-1.86-1.93-.4-.82-.53-1.85-.53-2.79-.04-8.31-.04-16.61,0-24.92,0-.94.11-1.97.51-2.8.37-.78,1.06-1.68,1.82-1.96,1.16-.42,2.51-.47,3.77-.47,16.29-.03,32.59-.03,48.88.01,1.26,0,2.54.23,3.76.58.52.15,1.16.8,1.25,1.31.34,1.87.63,3.77.64,5.67.05,15.02.03,30.03.03,45.05,0,3.19-.15,6.4.02,9.58.19,3.56-1.27,6.21-4.01,8.2-2.83,2.07-5.67,4.17-8.71,5.88-8.4,4.71-17.41,7.67-26.87,9.64-9.53,1.98-19.12,2.27-28.6,1.32-21.59-2.15-39.7-11.42-53.24-28.7-6.41-8.18-10.17-17.54-12.15-27.79-2.48-12.86-1.61-25.41,2.19-37.83,2.86-9.33,7.84-17.42,14.61-24.42,11.95-12.35,26.4-19.72,43.4-22.46,7.31-1.18,14.59-1.89,21.93-1.39,10.24.7,20.21,2.73,29.6,7.11,1.94.9,3.08,2.24,3.08,4.38,0,10.22-.04,20.44-.11,30.66,0,.56-.46,1.12-.78,1.86Z"></path><path class="cls-1" d="m1718.52,1685.66c0,18.86.01,37.73-.01,56.59,0,2.87-.15,5.74-.28,8.61-.05,1.12-1.27,2.48-2.35,2.73-.93.22-1.86.57-2.79.57-9.91.05-19.82.05-29.73.03-.94,0-1.89-.28-2.82-.46-.96-.19-2.45-1.67-2.54-2.63-.18-1.9-.4-3.81-.41-5.72-.04-10.23,0-20.46-.03-30.69,0-2.56-.08-5.11-.21-7.67-.1-1.88-1.79-3.44-3.87-3.49-4.15-.11-8.31-.15-12.47-.16-6.71-.02-13.43-.02-20.14.04-1.59.01-3.23.12-4.73.57-.75.22-1.63,1.23-1.77,2.01-.4,2.18-.6,4.42-.61,6.64-.06,10.55,0,21.1-.06,31.65-.01,2.22-.26,4.45-.51,6.67-.17,1.48-1.72,2.79-3.3,3.02-.32.05-.63.18-.94.18-10.55-.01-21.09-.03-31.64-.08-.62,0-1.23-.3-1.85-.44-1.09-.26-2.28-1.57-2.35-2.71-.12-1.91-.28-3.82-.28-5.74-.02-39.65-.02-79.29,0-118.94,0-1.91.13-3.83.25-5.74.07-1.23,1.22-2.49,2.33-2.66.94-.14,1.89-.4,2.83-.4,9.91-.03,19.82-.04,29.73-.02.95,0,1.9.2,2.84.34,1.05.15,2.27,1.43,2.41,2.66.22,1.9.46,3.8.47,5.71.05,8.95,0,17.9.04,26.86.02,3.83.12,7.67.26,11.5.06,1.66,1.42,2.98,3.01,3.14.63.07,1.27.2,1.9.2,11.19.01,22.38.02,33.57-.01.95,0,2-.06,2.8-.48.75-.39,1.63-1.24,1.76-2,.36-2.19.5-4.44.51-6.66.05-10.55,0-21.1.04-31.65,0-2.23.19-4.46.37-6.68.09-1.18,1.34-2.38,2.5-2.57.31-.05.62-.19.93-.19,11.18,0,22.37,0,33.55.03.61,0,1.29.23,1.81.56.52.32,1.2.86,1.25,1.36.27,2.53.49,5.08.5,7.63.04,19.5.02,39.01.02,58.51Z"></path><path class="cls-1" d="m444.74,1685.13c0-18.86,0-37.73,0-56.59,0-11.36-.22-11.2,10.98-11.21,17.58,0,35.17-.02,52.75.01,3.51,0,7.04.09,10.54.33,10.85.72,20.49,4.51,28.79,11.61,6.51,5.58,11.24,12.47,12.88,20.84,3.38,17.22-.42,32.38-14.47,43.98-2.21,1.82-4.65,3.37-6.97,5.07-1.41,1.04-1.74,2.61-.78,4.2,1.48,2.46,3.01,4.9,4.58,7.31,7.85,12.05,15.74,24.08,23.56,36.14,1.03,1.59,1.86,3.32,2.6,5.06.15.36-.35,1.3-.79,1.54-.8.44-1.78.78-2.69.79-12.15.06-24.3.06-36.44.05-.95,0-1.91-.18-2.85-.33-1.31-.2-2.46-.8-3.24-1.86-1.32-1.8-2.58-3.65-3.76-5.54-6.43-10.3-12.83-20.62-19.26-30.92-1.69-2.71-3.41-5.4-5.16-8.08-1.14-1.75-2.83-2.44-4.89-2.45-2.82-.02-4.45,1.17-4.63,3.67-.18,2.55-.28,5.1-.29,7.66-.04,8.95.02,17.9-.04,26.86-.02,2.55-.25,5.09-.44,7.64-.09,1.13-1.34,2.47-2.39,2.7-.93.21-1.86.56-2.8.57-9.59.05-19.18.05-28.77.04-.63,0-1.27-.14-1.9-.23-2.12-.28-3.68-1.68-3.8-3.65-.18-2.87-.3-5.74-.31-8.61-.03-13.43-.01-26.86-.01-40.28,0-5.44,0-10.87,0-16.31Zm54.13-33.62v.03c-3.17,0-6.35-.06-9.52.02-2.12.05-3.75,1.46-3.79,3.49-.13,5.38-.14,10.77-.06,16.15.03,1.96,1.81,3.78,3.6,3.81,6.03.1,12.05.15,18.08.1,2.6-.02,4.99-1.07,7.15-2.4,4.82-2.97,8.04-10.06,3.07-16.51-2.25-2.92-5.37-4.45-9.01-4.65-3.16-.17-6.34-.04-9.52-.04Z"></path><path class="cls-1" d="m2080.51,1742.23c-.45-6.12-.24-11.87-.23-17.62.01-6.07.18-12.13.3-18.2.02-.9,1.26-1.41,2.21-.98.58.26,1.22.42,1.76.75,12.72,7.84,26.81,11.86,41.3,14.63,6.31,1.21,12.76.9,19.13.39,2.15-.17,4.26-1.23,6.3-2.09.82-.35,1.47-1.2,2.09-1.91,1.23-1.4,1.28-4.05,0-5.29-1.13-1.09-2.37-2.15-3.72-2.93-4.45-2.58-9.4-3.95-14.25-5.55-6.06-2-12.17-3.85-18.24-5.82-4.87-1.59-9.55-3.64-14.06-6.05-3.96-2.12-7.68-4.59-11.02-7.62-7.5-6.79-11.43-15.29-11.74-25.36-.11-3.49,0-7.07.65-10.49,2.15-11.37,8.53-19.77,18.59-25.44,5.63-3.17,11.67-5.33,17.95-6.48,12.63-2.31,25.28-2.94,38.12-.78,8.24,1.39,16.25,3.25,24.09,6.03.3.11.62.17.91.29,7.9,3.22,7.9,3.27,7.86,10.99-.04,8.95-.12,17.9-.2,26.85,0,.77-1.34,1.78-2.04,1.62-.62-.13-1.28-.16-1.87-.39-.89-.34-1.71-.85-2.59-1.24-10.9-4.75-22.38-7.54-34.04-9.5-5.99-1.01-12.11-.77-18.18-.27-1.98.17-3.61,1.2-5.12,2.42-1.3,1.05-1.62,4.06-.43,5.27,1.1,1.13,2.28,2.33,3.66,3.01,2.57,1.26,5.26,2.31,7.98,3.19,6.37,2.07,12.8,3.98,19.19,5.99,6.4,2.01,12.7,4.29,18.66,7.43,4.55,2.4,8.8,5.19,12.53,8.76,6.79,6.49,10.55,14.33,10.75,23.79.12,5.77.03,11.47-2.05,17.01-2.06,5.5-5.06,10.3-9.28,14.35-7.85,7.53-17.35,11.86-27.85,14.07-13.6,2.86-27.23,2.68-40.96.56-9.23-1.42-18.08-3.81-26.58-7.62-3.22-1.44-6.39-2.93-9.62-5.8Z"></path><path class="cls-1" d="m1957.44,1685.75c0-18.85,0-37.69.01-56.54,0-2.87.11-5.74.23-8.61.07-1.56,1.47-2.87,3.16-3,1.59-.12,3.19-.24,4.78-.24,30.03-.02,60.06-.02,90.08,0,1.91,0,3.81.23,5.72.4,1.18.11,2.41,1.35,2.55,2.47.12.95.33,1.9.33,2.84.03,7.67.03,15.33,0,23,0,.95-.2,1.9-.31,2.85-.14,1.15-1.34,2.42-2.5,2.49-2.86.17-5.73.38-8.59.39-14.69.04-29.39-.02-44.08.04-10.1.04-10.34.33-10.23,10.09.02,1.59.15,3.18.29,4.77.14,1.58,1.47,2.81,3.24,2.89,2.87.13,5.74.21,8.61.21,10.54.03,21.08,0,31.63.02,1.59,0,3.19.1,4.78.21,1.43.11,3.03,1.71,3.04,3.24.04,8.3.03,16.6-.03,24.9-.01,1.64-1.47,3.17-2.94,3.25-2.55.15-5.1.27-7.65.28-10.22.03-20.44-.03-30.67.03-10.24.06-10.55.41-10.27,10.98.03,1.27.24,2.53.41,3.79.15,1.08,1.47,2.33,2.59,2.48.95.13,1.89.32,2.84.35,2.55.06,5.11.06,7.67.06,14.38,0,28.75,0,43.13,0,2.24,0,4.47.03,6.7.13,2.39.1,3.78,1.27,3.78,3.39.01,9.26-.04,18.52-.11,27.77-.01,1.44-1.58,3.05-3.1,3.16-3.18.23-6.37.46-9.55.47-17.57.04-35.14.02-52.71.02-10.86,0-21.72.04-32.58-.04-2.53-.02-5.06-.41-7.58-.71-1.1-.13-2.3-1.55-2.35-2.69-.13-2.87-.28-5.74-.28-8.61-.02-18.85-.01-37.69-.01-56.54Z"></path><path class="cls-1" d="m336.79,1616.64c7.97-.77,29.62-.76,37.85.03.82,1.41,1.94,2.95,2.67,4.66,3.74,8.82,7.42,17.67,11.06,26.54,13.22,32.22,26.41,64.44,39.58,96.68.96,2.34,1.68,4.78,2.35,7.22.11.4-.45,1.29-.9,1.48-1.15.48-2.41.92-3.64.96-4.47.14-8.95.13-13.43.14-5.76.01-11.51,0-17.27-.03-1.28,0-2.56-.1-3.83-.24-2.06-.22-3.59-1.25-4.39-3.2-1.45-3.55-2.88-7.1-4.29-10.66-1.06-2.67-2.07-5.37-3.13-8.04-1.07-2.7-3.1-3.92-5.98-3.82-.96.03-1.92-.03-2.88-.03-10.55,0-21.11-.04-31.66.03-2.2.01-4.4.38-6.76.59-1.07,2.15-2.18,4.08-3.02,6.13-2.07,5.02-3.99,10.1-6.01,15.14-1.07,2.65-3.1,3.95-5.95,3.99-.64,0-1.28.1-1.92.1-9.59,0-19.19.05-28.78-.04-1.55-.01-3.11-.5-4.61-.96-.43-.13-1-1.07-.89-1.46.69-2.43,1.43-4.87,2.39-7.21,6.98-17.16,14.01-34.31,21.02-51.46,9.19-22.47,18.35-44.96,27.6-67.4,1.32-3.19,2.05-6.76,4.8-9.11Zm17.93,81.81c2.51-.23,5.35-.37,8.13-.84.66-.11,1.56-1.29,1.6-2.02.09-1.54-.12-3.16-.55-4.65-1.59-5.47-3.3-10.9-5.03-16.32-.77-2.4-1.63-4.78-2.59-7.12-.15-.37-1.04-.67-1.55-.61-.55.06-1.08.53-1.55.91-.22.18-.33.53-.43.83-2.57,8.14-5.14,16.29-7.68,24.44-.18.59-.13,1.25-.22,1.88-.15,1.04,1.02,2.8,1.98,2.89,2.52.22,5.04.4,7.9.62Z"></path><path class="cls-1" d="m1436.04,1754.21c-5.43,0-10.86.06-16.29-.02-2.75-.04-4.84-1.13-5.87-3.98-1.53-4.19-3.27-8.31-4.92-12.46-.83-2.07-1.6-4.17-2.51-6.21-.84-1.89-2.33-3.01-4.44-3.1-1.91-.08-3.83-.12-5.75-.13-9.26-.01-18.53,0-27.79,0-1.6,0-3.19.06-4.79.04-2.83-.04-4.89,1.01-5.97,3.8-1.61,4.17-3.33,8.29-5.03,12.42-.97,2.36-1.94,4.72-2.97,7.05-.56,1.26-1.72,1.86-2.97,2.2-.92.25-1.89.4-2.83.4-10.54.02-21.08.03-31.62-.02-.92,0-1.9-.29-2.74-.68-.47-.22-.94-.9-1.02-1.42-.31-2.33.86-4.3,1.7-6.36,14.5-35.44,28.99-70.88,43.48-106.33,2.29-5.61,4.58-11.23,6.91-16.83.61-1.47,1.27-2.93,2.06-4.31.65-1.13,1.68-1.89,3.05-2.03.32-.03.63-.1.95-.1,10.86,0,21.72.01,32.58,0,2.17,0,3.6,1.12,4.47,2.99.94,2.03,1.77,4.1,2.62,6.17,16.14,39.25,32.27,78.51,48.4,117.76.85,2.07,1.69,4.14,2.44,6.24.91,2.52-.31,4.58-2.96,4.69-6.06.25-12.13.33-18.19.47,0-.09,0-.18,0-.27Zm-53.45-55.78c2.29-.2,5.15-.33,7.96-.79.63-.1,1.45-1.34,1.51-2.1.09-1.22-.27-2.52-.63-3.74-2.18-7.32-4.39-14.63-6.64-21.92-.28-.89-.8-1.76-1.38-2.49-.3-.38-.98-.53-1.52-.63-.22-.04-.61.27-.77.51-.52.8-1.14,1.59-1.42,2.48-2.38,7.59-4.7,15.2-7.03,22.81-.19.61-.35,1.22-.49,1.84-.39,1.7.64,3.4,2.22,3.52,2.53.21,5.08.32,8.18.51Z"></path><path class="cls-1" d="m1572.5,1731.27c0,5.43.03,10.86-.02,16.29-.01,1.37-.85,2.41-2,3.06-1.38.78-2.8,1.59-4.31,2.06-7.63,2.39-15.37,4.27-23.42,4.34-3.83.04-7.67.16-11.5-.02-16.63-.79-31.98-5.48-45.6-15.3-14.72-10.61-23.86-24.92-26.58-42.76-1.89-12.35-1.55-24.8,2.54-36.94,4.66-13.84,13.22-24.66,24.95-33.09,10.03-7.2,21.18-11.6,33.44-13.34,5.7-.81,11.36-1.62,17.14-1.56,8.36.09,16.5,1.45,24.52,3.71.92.26,1.84.52,2.73.88,5.79,2.35,6.23,2.96,6.21,9.2-.04,9.26-.07,18.53-.14,27.79-.02,1.92-1.41,2.77-3.28,2.15-.91-.3-1.84-.56-2.73-.91-.89-.35-1.72-.84-2.61-1.19-9.68-3.86-19.73-5.1-30.06-4.17-21.79,1.96-39.29,24.44-28.61,48.55,3.68,8.3,10.27,13.74,18.52,17.16,6.61,2.74,13.6,3.23,20.68,2.98,9.05-.33,17.7-2.18,25.79-6.39.82-.43,1.8-.7,2.72-.74.45-.02,1.29.63,1.34,1.04.26,2.53.41,5.07.46,7.61.07,3.19.02,6.39.02,9.58-.06,0-.11,0-.17,0Z"></path><path class="cls-1" d="m737.06,1684.49c0-18.83-.01-37.67.01-56.5,0-2.55.16-5.1.29-7.64.06-1.15,1.3-2.38,2.45-2.57.63-.1,1.25-.31,1.88-.31,10.53-.02,21.06-.03,31.6-.01.63,0,1.25.2,1.88.3,1.14.19,2.39,1.4,2.47,2.58.17,2.54.36,5.09.36,7.63.03,22.66.02,45.33.02,67.99,0,16.28.03,32.56-.01,48.84-.02,8.83-.55,9.4-9.01,9.49-7.98.09-15.96.06-23.94-.03-1.88-.02-3.8-.37-5.61-.88-.78-.22-1.77-1.16-1.89-1.9-.37-2.19-.46-4.44-.46-6.66-.03-16.92-.02-33.84-.02-50.76,0-3.19,0-6.38,0-9.58Z"></path><path class="cls-1" d="m1742.4,1685.14c0-18.51,0-37.02,0-55.53,0-2.87.07-5.74.17-8.61.06-1.75,1.29-3.09,2.85-3.3.63-.08,1.26-.25,1.89-.25,10.53,0,21.06,0,31.59.04.62,0,1.34.08,1.84.41.75.49,1.54,1.12,1.95,1.89.43.81.55,1.84.59,2.78.11,2.23.12,4.47.12,6.7,0,37.66.01,75.32-.02,112.98,0,2.86-.24,5.72-.49,8.57-.14,1.55-1.64,2.9-3.19,3.1-1.26.17-2.53.37-3.8.37-8.62.03-17.23.04-25.85,0-1.58-.01-3.16-.32-4.73-.56-1.16-.18-2.48-1.47-2.54-2.53-.17-2.86-.36-5.73-.37-8.59-.03-19.15-.02-38.3-.02-57.45Z"></path><path class="cls-1" d="m1095.91,939.22c-62.36,0-124.72.03-187.07-.02-14.55-.01-28.6-2.74-41.72-9.22-25.9-12.81-42.62-33.31-49.57-61.27-5.69-22.88-3.06-45.1,8.26-65.97,5.18-9.55,10.78-18.87,16.22-28.28,46.5-80.55,93-161.09,139.5-241.63,11.19-19.38,22.39-38.74,33.53-58.14,4.96-8.65,10.69-16.67,17.99-23.53,12.9-12.11,27.97-19.84,45.33-23.48,9.54-2,19.05-1.69,28.63-1.43,23.67,3.35,43.83,13.31,59.59,31.58,4.19,4.86,7.72,10.18,10.93,15.73,11.02,19.1,22.05,38.2,33.08,57.29,49.56,85.79,99.12,171.58,148.67,257.37,2.88,4.98,5.75,9.97,8.48,15.03,7.26,13.49,10.95,27.95,10.88,43.23-.09,21.15-6.66,40.23-19.6,56.96-13.62,17.6-31.51,28.82-53.21,33.53-7.44,1.61-15.1,2.34-22.84,2.32-60.44-.11-120.88-.06-181.32-.06-1.92,0-3.84,0-5.76,0Zm.39-49.6c59.78,0,119.57,0,179.35,0,3.2,0,6.41.19,9.59-.09,4.44-.39,9.02-.58,13.25-1.83,25-7.42,38.52-36.44,26.16-60.09-1.48-2.83-3.04-5.62-4.63-8.39-22.21-38.46-44.43-76.91-66.64-115.37-39.14-67.79-78.26-135.59-117.4-203.38-1.6-2.76-3.22-5.54-5.13-8.08-8.95-11.84-21.19-17.48-35.74-17.01-13.8.45-25.21,6.49-33.36,17.95-1.85,2.6-3.43,5.39-5.03,8.15-61.2,105.97-122.39,211.94-183.57,317.92-1.76,3.04-3.53,6.09-4.97,9.29-1.31,2.89-2.64,5.9-3.17,9-2.8,16.35,1.65,30.39,14.2,41.49,6.11,5.41,13.25,8.71,21.48,9.72,5.1.63,10.2.72,15.31.72,60.1,0,120.21,0,180.31,0Z"></path><path class="cls-1" d="m1070.58,652.48c0-23.02,0-46.05,0-69.07,0-2.88.11-5.76.07-8.63-.11-7.63,6.59-16.66,15.37-18.6,7.32-1.61,14.58-1.86,21.79.2,7.72,2.21,12.56,7.37,14.33,15.2.63,2.79.82,5.68,1.08,8.54.15,1.59.04,3.2.04,4.79,0,45.09,0,90.18,0,135.27,0,4.48-.02,8.93-1.07,13.35-2.18,9.13-9.83,15.69-19.08,15.99-4.15.14-8.32.12-12.47,0-8.97-.25-16.75-6.16-19.31-14.61-.37-1.21-.54-2.51-.59-3.77-.12-2.87-.15-5.75-.15-8.63-.01-23.34,0-46.69,0-70.03Z"></path><path class="cls-1" d="m1070.61,809.42c.25-14.62,11.88-25.51,26.7-25.25,14.4.25,25.74,11.39,25.53,26.58-.21,14.77-11.71,25.77-26.38,25.74-15.32-.03-27.04-13.19-25.85-27.08Z"></path></svg>