<svg xmlns="http://www.w3.org/2000/svg" xmlns:xlink="http://www.w3.org/1999/xlink" id="Layer_1" x="0px" y="0px" viewBox="0 0 407.6 78.8" style="enable-background:new 0 0 407.6 78.8;" xml:space="preserve"><style type="text/css">	.st0{fill:#5A32FF;}	.st1{fill:#555555;}</style><g>	<g>		<path class="st0" d="M23.9,36.7H22c-2.1,0-4.2,0.3-6.2,1c-3.4,1.3-4.8,4-4.8,4v-2.1v-2.5c0-0.2-0.2-0.4-0.4-0.4H0.4   c-0.2,0-0.4,0.2-0.4,0.4v37.7c0,0.2,0.2,0.4,0.4,0.4h10.1c0.2,0,0.4-0.2,0.4-0.4V58.2c0-6.1,4.9-11,11-11h1.8   c0.2,0,0.4-0.2,0.4-0.4v-9.6C24.3,36.9,24.1,36.7,23.9,36.7z"></path>		<path class="st0" d="M55.1,25.7L55.1,25.7C55.1,25.7,55.1,25.7,55.1,25.7c0-6.1-1.3-10-4.1-13.7c-4.1-5.3-10.7-8.4-17-8.4H0.4   C0.2,3.6,0,3.8,0,4.1v25.7c0,0.2,0.2,0.4,0.4,0.4h10.1c0.2,0,0.4-0.2,0.4-0.4V14.6c0-0.2,0.2-0.4,0.4-0.4h21.4   c6,0,11.1,5.3,11.2,11.3c0.1,6.2-4.9,11.2-11,11.2h-1.8c-0.2,0-0.4,0.2-0.4,0.4v9.7c0,0.2,0.2,0.4,0.4,0.4H33c6.1,0,11,4.9,11,11   v16.6c0,0.2,0.2,0.4,0.4,0.4h10.1c0.2,0,0.4-0.2,0.4-0.4c0,0,0-16.2,0-16.2c0-3.4-0.7-7-2.4-9.9c-2.3-3.9-5.6-6-8.4-6.7   c2.8-0.7,6.3-2.9,8.3-6.3C54.1,32.9,55.1,29.5,55.1,25.7z"></path>	</g>	<g>		<path class="st1" d="M96.7,23h6.1v5.3c2.1-4.3,5.6-6.2,10.3-6.2c1.3,0,2.7,0.1,4.2,0.5l-0.6,6.2c-1.3-0.4-2.5-0.6-3.7-0.6   c-5.3,0-9.8,3.5-9.8,11.6v18.9h-6.4V23z"></path>		<path class="st1" d="M387.1,23h6.1v5.3c2.1-4.3,5.6-6.2,10.3-6.2c1.3,0,2.7,0.1,4.2,0.5l-0.6,6.2c-1.3-0.4-2.5-0.6-3.7-0.6   c-5.3,0-9.8,3.5-9.8,11.6v18.9h-6.4V23z"></path>		<g>			<path class="st1" d="M138.1,53.6c-7.9,0-11.6-4.7-12.5-10.2h9v-5.5h-9c0.9-5.1,4.3-8.9,9-9.9v-5.8c-9.5,1.1-15.7,8.6-15.7,18.4    c0,9.3,5.5,18.8,19.1,18.8c6.3,0,12.1-2.5,15.3-5l-2.7-4.9C147.2,52,142.3,53.6,138.1,53.6z"></path>			<path class="st1" d="M138.5,22.2v5.7c4.9,0.7,8.7,4.3,9,10h-9v5.5H154c0.1-0.9,0.2-1.8,0.2-3.3C154.2,29.5,147.6,22.9,138.5,22.2    z"></path>		</g>		<g>			<path class="st1" d="M206.5,53.5c-5.9-1-10.3-6.4-10.3-12.7c0-6.2,4.4-11.6,10.3-12.6v-6c-10,1-16.8,9-16.8,18.6    c0,9.8,6.8,17.7,16.8,18.7V53.5z"></path>			<path class="st1" d="M210.5,22.1v6c6,1,10.4,6.4,10.4,12.6c0,6.4-4.4,11.8-10.4,12.8v5.9c9.9-0.9,16.8-8.9,16.8-18.7    C227.3,31.1,220.4,23.1,210.5,22.1z"></path>		</g>		<g>			<path class="st1" d="M290.2,53.5c-6.1-1.1-9.8-6.4-9.8-12.7c0-6.2,3.7-11.6,9.8-12.7v-6c-9.5,0.8-16.3,8.3-16.3,18.4    c0,10.2,6.8,18.1,16.3,18.9V53.5z"></path>			<path class="st1" d="M304.4,23v5.2c-2.6-3.2-6.1-5.3-10.2-5.9v5.8c6.5,0.8,10.6,6.3,10.6,12.7c0,6.5-4.1,12-10.6,12.8v5.8    c4.1-0.6,7.6-2.6,10.2-5.7v5.1h6.1V23H304.4z"></path>		</g>		<g>			<path class="st1" d="M174.5,27.6c1.8,0.5,3.6,1.7,5,3.7l4.1-3.9c-2-3.2-5.5-5-9.1-5.5V27.6z"></path>			<path class="st1" d="M166.1,40.4c1.1,0.6,2.8,1.3,4.4,2v-6.4c-0.3-0.1-0.5-0.2-0.8-0.4c-2.3-1.1-3-2.7-3-4.2    c0-1.9,1.3-3.7,3.8-4.2v-5.4c-6.2,0.7-9.9,4.7-9.9,9.9C160.6,35,162.3,38.4,166.1,40.4z"></path>			<path class="st1" d="M170.5,53.8c-2.7-0.4-5.6-2.1-7.5-5.5l-4.6,3.5c2.7,5,7.5,7.3,12.1,7.7V53.8z"></path>			<path class="st1" d="M178.5,39.6c-1.2-0.6-2.6-1.3-4-1.9v6.4c0.1,0.1,0.3,0.2,0.4,0.2c1.9,1,3.3,2.4,3.3,4.5c0,2-1.4,3.8-3.7,4.5    v5.8c6.1-1,10-5.4,10-10.6C184.6,44.4,182.2,41.6,178.5,39.6z"></path>		</g>		<g>			<path class="st1" d="M358.7,53.5c-5.9-1-10.3-6.4-10.3-12.7c0-6.2,4.4-11.6,10.3-12.6v-6c-10,1-16.8,9-16.8,18.6    c0,9.8,6.8,17.7,16.8,18.7V53.5z"></path>			<path class="st1" d="M362.7,22.1v6c6,1,10.4,6.4,10.4,12.6c0,6.4-4.4,11.8-10.4,12.8v5.9c9.9-0.9,16.8-8.9,16.8-18.7    C379.5,31.1,372.6,23.1,362.7,22.1z"></path>		</g>		<path class="st1" d="M252.5,22c-2.7,0-5.2,0.7-7.2,1.9v6c1.6-1.2,3.6-2,5.9-2c5.2,0,9.1,3.7,9.1,10.9v19.9h6.3V37   C266.6,26.8,259.9,22,252.5,22z"></path>		<polygon class="st1" points="241.3,23 234.9,23 234.9,58.7 241.3,58.7 241.3,45.4 241.3,45.4   "></polygon>		<g>			<path class="st1" d="M337.1,51.6c-1.9,1.2-4.1,2.1-6.4,2.1c-4.3,0-5.8-2.7-5.8-7.1l0-36.3h-6.2l-0.1,35.8    c0,8.3,3.7,13.4,11.4,13.4c3.4,0,6.9-1,9.5-3L337.1,51.6z"></path>			<rect x="328.9" y="23" class="st1" width="8.7" height="5.5"></rect>		</g>	</g></g></svg>